<svg width="107" height="107" viewBox="0 0 107 107" fill="none" xmlns="http://www.w3.org/2000/svg">
<g id="Group 38">
<circle id="Ellipse 2" cx="53.5" cy="53.5" r="53.5" fill="#D4E7CA"/>
<g id="&#240;&#159;&#166;&#134; icon &#34;globe alt&#34;">
<path id="Vector" d="M53.5224 19.1752C35.0085 19.1752 20 33.2857 20 50.6918C20 68.0978 35.0085 82.2083 53.5224 82.2083C72.0363 82.2083 87.0448 68.0978 87.0448 50.6918C87.0448 33.2857 72.0363 19.1752 53.5224 19.1752ZM42.2152 75.8613C35.1199 73.0363 29.5066 67.6801 26.6073 60.9682C23.7081 54.2564 23.7598 46.7372 26.751 40.0611C26.8932 39.7449 27.0432 39.4327 27.198 39.1228L34.5264 45.3242V53.6282L45.2954 64.3489H50.7289V70.7897L44.1568 76.5566C43.5029 76.347 42.8557 76.1152 42.2152 75.8613ZM74.0658 70.0059C71.3714 72.5466 68.1693 74.5614 64.6437 75.9344C61.1181 77.3074 57.3385 78.0114 53.5224 78.0061C52.1334 78.0062 50.7461 77.9138 49.3709 77.7294L55.1985 72.6159V60.1467H47.223L38.996 51.9576V43.4527L29.4561 35.381C32.6125 31.01 37.0422 27.5871 42.2146 25.5223C46.6406 23.762 51.4623 23.0625 56.2469 23.4867C61.0314 23.9109 65.6291 25.4454 69.6271 27.9525L63.2629 35.6454L65.4265 40.7307L63.962 42.1076L52.9809 40.0429L46.8179 44.3885V55.9445H71.401L78.433 64.7594C77.2103 66.6691 75.7436 68.431 74.0658 70.0059ZM82.5751 50.6918C82.5816 54.0521 81.9246 57.3844 80.6374 60.5193L73.6358 51.7423H51.2876V46.4896L54.0639 44.5319L65.4311 46.6693L70.6711 41.7429L68.365 36.3227L73.1419 30.5477C73.4549 30.8177 73.7627 31.0943 74.0652 31.3776C76.7677 33.9107 78.9109 36.9212 80.3713 40.2359C81.8318 43.5505 82.5808 47.104 82.5751 50.6918Z" fill="#73C348"/>
</g>
</g>
</svg>
