<svg width="38" height="33" viewBox="0 0 38 33" fill="none" xmlns="http://www.w3.org/2000/svg">
<g id="&#240;&#159;&#166;&#134; icon &#34;calendar&#34;">
<path id="Vector" d="M35.3044 4.14994H28.4912V0H26.0137V4.14994H11.1487V0H8.67124V4.14994H1.85812C1.36549 4.15049 0.893207 4.33805 0.544866 4.67147C0.196524 5.0049 0.00057373 5.45696 0 5.92849V30.8281C0.00057373 31.2997 0.196524 31.7517 0.544866 32.0852C0.893207 32.4186 1.36549 32.6061 1.85812 32.6067H35.3044C35.797 32.6061 36.2693 32.4186 36.6176 32.0852C36.966 31.7517 37.1619 31.2997 37.1625 30.8281V5.92849C37.1619 5.45696 36.966 5.0049 36.6176 4.67147C36.2693 4.33805 35.797 4.15049 35.3044 4.14994ZM34.685 30.2353H2.4775V6.52134H8.67124V9.48558H11.1487V6.52134H26.0137V9.48558H28.4912V6.52134H34.685V30.2353Z" fill="black"/>
<path id="Vector_2" d="M9.90999 13.6355H7.43249V16.0069H9.90999V13.6355Z" fill="black"/>
<path id="Vector_3" d="M16.7231 13.6355H14.2456V16.0069H16.7231V13.6355Z" fill="black"/>
<path id="Vector_4" d="M22.9169 13.6355H20.4394V16.0069H22.9169V13.6355Z" fill="black"/>
<path id="Vector_5" d="M29.73 13.6355H27.2525V16.0069H29.73V13.6355Z" fill="black"/>
<path id="Vector_6" d="M9.90999 18.9712H7.43249V21.3426H9.90999V18.9712Z" fill="black"/>
<path id="Vector_7" d="M16.7231 18.9712H14.2456V21.3426H16.7231V18.9712Z" fill="black"/>
<path id="Vector_8" d="M22.9169 18.9712H20.4394V21.3426H22.9169V18.9712Z" fill="black"/>
<path id="Vector_9" d="M29.73 18.9712H27.2525V21.3426H29.73V18.9712Z" fill="black"/>
<path id="Vector_10" d="M9.90999 24.3069H7.43249V26.6783H9.90999V24.3069Z" fill="black"/>
<path id="Vector_11" d="M16.7231 24.3069H14.2456V26.6783H16.7231V24.3069Z" fill="black"/>
<path id="Vector_12" d="M22.9169 24.3069H20.4394V26.6783H22.9169V24.3069Z" fill="black"/>
<path id="Vector_13" d="M29.73 24.3069H27.2525V26.6783H29.73V24.3069Z" fill="black"/>
</g>
</svg>
