<svg width="35" height="35" viewBox="0 0 35 35" fill="none" xmlns="http://www.w3.org/2000/svg">
<g id="&#240;&#159;&#166;&#134; icon &#34;telegram&#34;">
<path id="Vector" d="M17.5 0C7.8321 0 0 7.83323 0 17.5C0 27.1668 7.83323 35 17.5 35C27.1679 35 35 27.1668 35 17.5C35 7.83323 27.1668 0 17.5 0ZM26.0953 11.9892L23.2231 25.524C23.0108 26.4837 22.4395 26.7163 21.6424 26.2647L17.2674 23.0402L15.1573 25.0724C14.9247 25.305 14.7271 25.5026 14.2755 25.5026L14.586 21.0497L22.6935 13.7245C23.0469 13.414 22.6156 13.2379 22.1494 13.5484L12.1292 19.8563L7.81065 18.5082C6.87242 18.2124 6.85097 17.57 8.00823 17.1184L24.8805 10.6118C25.664 10.3295 26.3482 10.8026 26.0942 11.9881L26.0953 11.9892Z" fill="white"/>
</g>
</svg>
