<svg width="107" height="107" viewBox="0 0 107 107" fill="none" xmlns="http://www.w3.org/2000/svg">
<g id="Group 38">
<circle id="Ellipse 2" cx="53.5" cy="53.5" r="53.5" fill="#D4E7CA"/>
<g id="&#240;&#159;&#166;&#134; icon &#34;alarm&#34;">
<path id="Vector" d="M53.2873 28.8605C38.3571 28.8605 26.2538 40.5896 26.2538 55.058C26.2538 69.5264 38.3571 81.2554 53.2873 81.2554C68.2174 81.2554 80.3208 69.5264 80.3208 55.058C80.3208 40.5896 68.2174 28.8605 53.2873 28.8605ZM69.462 70.7325C65.7199 74.3588 60.7961 76.6156 55.5294 77.1183C50.2628 77.621 44.9792 76.3385 40.5789 73.4893C36.1786 70.6401 32.934 66.4004 31.3977 61.4928C29.8615 56.5852 30.1288 51.3132 32.154 46.5751C34.1792 41.837 37.837 37.926 42.5043 35.5084C47.1715 33.0909 52.5594 32.3164 57.7498 33.3169C62.9403 34.3174 67.6122 37.031 70.9695 40.9953C74.3268 44.9597 76.1618 49.9295 76.1618 55.058C76.17 57.9702 75.5821 60.855 74.4321 63.5455C73.282 66.2361 71.5928 68.6788 69.462 70.7325Z" fill="#73C348"/>
<path id="Vector_2" d="M55.3668 38.9365H51.2078V56.0265L62.3857 64.6923L64.9838 61.5451L55.3668 54.0894V38.9365Z" fill="#73C348"/>
<path id="Vector_3" d="M42.7554 20.1444L23 33.243L25.3486 36.5695L45.1039 23.4708L42.7554 20.1444Z" fill="#73C348"/>
<path id="Vector_4" d="M63.8196 20.1443L61.471 23.4707L81.2261 36.5696L83.5748 33.2433L63.8196 20.1443Z" fill="#73C348"/>
</g>
</g>
</svg>
