<svg width="107" height="107" viewBox="0 0 107 107" fill="none" xmlns="http://www.w3.org/2000/svg">
<g id="Group 38">
<circle id="Ellipse 2" cx="53.5" cy="53.5" r="53.5" fill="#D4E7CA"/>
<g id="&#240;&#159;&#166;&#134; icon &#34;money&#34;">
<path id="Vector" d="M77.6075 25.9587H20V66.8374H77.6075V25.9587ZM73.1761 62.7496H24.4313V30.0466H73.1761V62.7496Z" fill="#73C348"/>
<path id="Vector_2" d="M82.0386 36.1784V70.9253H31.0781V75.0132H86.4699V36.1784H82.0386Z" fill="#73C348"/>
<path id="Vector_3" d="M48.8036 56.421C54.3012 56.421 58.7741 51.9324 58.7741 46.4152C58.7741 40.898 54.3012 36.4094 48.8036 36.4094C43.3059 36.4094 38.833 40.8978 38.833 46.4152C38.833 51.9325 43.3059 56.421 48.8036 56.421ZM48.8036 40.4972C51.8579 40.4972 54.3427 43.152 54.3427 46.4152C54.3427 49.6783 51.8579 52.3331 48.8036 52.3331C45.7493 52.3331 43.2644 49.6783 43.2644 46.4152C43.2644 43.152 45.7493 40.4972 48.8036 40.4972Z" fill="#73C348"/>
<path id="Vector_4" d="M33.294 35.1564H28.8626V57.6397H33.294V35.1564Z" fill="#73C348"/>
<path id="Vector_5" d="M68.7448 35.1564H64.3135V57.6397H68.7448V35.1564Z" fill="#73C348"/>
</g>
</g>
</svg>
