<svg width="36" height="35" viewBox="0 0 36 35" fill="none" xmlns="http://www.w3.org/2000/svg">
<g id="&#240;&#159;&#166;&#134; icon &#34;viber&#34;">
<path id="Vector" d="M17.3288 0.00509352C14.3695 0.039004 8.00703 0.500623 4.4484 3.5996C1.80133 6.08928 0.877099 9.77021 0.768773 14.3219C0.678886 18.8571 0.570559 27.3741 9.21936 29.6931V33.2253C9.21936 33.2253 9.16519 34.6386 10.1493 34.9285C11.3617 35.2927 12.052 34.2054 13.2044 33.0371L15.3536 30.7301C21.2712 31.1972 25.8036 30.1208 26.3256 29.9611C27.5265 29.5969 34.2899 28.7765 35.3951 20.2584C36.529 11.4614 34.8431 5.91864 31.7996 3.41145H31.7811C30.8627 2.60854 27.1715 0.0554122 18.9249 0.0269712C18.9249 0.0269712 18.313 -0.0113148 17.3288 0.00509352ZM17.4302 2.47837C18.2703 2.4729 18.7809 2.50681 18.7809 2.50681C25.761 2.52431 29.0926 4.51846 29.8785 5.19011C32.4415 7.27505 33.7621 12.2719 32.7952 19.6163C31.8768 26.7375 26.3913 27.1881 25.3761 27.4955C24.9439 27.6268 20.952 28.561 15.9229 28.2536C15.9229 28.2536 12.1776 32.5438 11.0067 33.6486C10.8212 33.8422 10.6045 33.8991 10.4663 33.8707C10.268 33.8247 10.2081 33.5917 10.2196 33.2723L10.2554 27.4102C2.92031 25.485 3.35246 18.2205 3.43083 14.4258C3.52072 10.6311 4.27093 7.52665 6.50429 5.4242C9.51091 2.84372 14.9134 2.49587 17.4279 2.47837H17.4302ZM17.9834 6.27196C17.731 6.26649 17.5213 6.46558 17.5213 6.70514C17.5213 6.95017 17.731 7.14379 17.9834 7.14379C20.294 7.10441 22.5216 7.93576 24.1776 9.46282C25.852 11.0063 26.6679 13.0803 26.699 15.792C26.699 16.0316 26.903 16.2307 27.1611 16.2307V16.2132C27.4135 16.2132 27.6233 16.0196 27.6233 15.78C27.7373 13.1995 26.729 10.6923 24.8379 8.83493C23.0136 7.14269 20.7019 6.27087 17.9834 6.27087V6.27196ZM11.9091 7.27505C11.5852 7.22911 11.2487 7.29255 10.9664 7.45117H10.9422C10.3176 7.79902 9.73563 8.23767 9.18363 8.82399C8.763 9.28561 8.53483 9.7527 8.4749 10.2023C8.43918 10.4703 8.46338 10.7383 8.5475 10.9943L8.57747 11.0118C9.05111 12.3332 9.66995 13.6043 10.4259 14.801C11.3986 16.4812 12.5982 18.0367 13.9915 19.427L14.033 19.4839L14.0986 19.5298L14.1401 19.5758L14.1885 19.6152C15.659 20.9431 17.2977 22.0819 19.0747 23.0161C21.103 24.064 22.3337 24.5595 23.0724 24.7652V24.7761C23.2891 24.8385 23.4861 24.8669 23.6843 24.8669C24.3147 24.821 24.9093 24.5825 25.3772 24.1778C25.9776 23.6647 26.4513 23.1014 26.8062 22.503V22.4921C27.16 21.8598 27.0401 21.2615 26.5296 20.8567C25.5097 20.0079 24.3988 19.2553 23.228 18.6066C22.442 18.2019 21.6434 18.4469 21.3196 18.8571L20.6293 19.683C20.2755 20.0932 19.6325 20.0363 19.6325 20.0363L19.614 20.0473C14.8189 18.8845 13.5397 14.2759 13.5397 14.2759C13.5397 14.2759 13.4798 13.6491 13.9235 13.3297L14.7878 12.669C15.2015 12.3496 15.4896 11.5926 15.0459 10.8455C14.3671 9.72864 13.5754 8.68069 12.6812 7.71151C12.4887 7.48398 12.2133 7.32975 11.9068 7.27287L11.9091 7.27505ZM18.7809 8.57459C18.1689 8.57459 18.1689 9.45188 18.7866 9.45188C20.3228 9.47486 21.7875 10.0787 22.8558 11.1266C23.8284 12.1461 24.332 13.5025 24.2363 14.8754C24.2421 15.1149 24.4461 15.3085 24.6985 15.3085L24.7169 15.3315C24.9693 15.3315 25.179 15.1324 25.179 14.8929C25.2205 13.1547 24.6512 11.6965 23.5345 10.5283C22.4121 9.36 20.846 8.70476 18.8465 8.57459C18.8223 8.57459 18.8051 8.57459 18.7809 8.57459ZM19.538 10.933C18.9076 10.9155 18.8834 11.8103 19.508 11.8278C21.0269 11.9022 21.7644 12.6307 21.8612 14.1293C21.867 14.3689 22.071 14.557 22.3176 14.557H22.336C22.5942 14.5461 22.7981 14.335 22.7797 14.09C22.6714 12.1363 21.5489 11.0358 19.5564 10.9341C19.5507 10.9341 19.5449 10.9341 19.538 10.9341V10.933Z" fill="white"/>
</g>
</svg>
