<svg width="22" height="24" viewBox="0 0 22 24" fill="none" xmlns="http://www.w3.org/2000/svg">
<g id="&#240;&#159;&#166;&#134; icon &#34;phone&#34;">
<path id="Vector" d="M0.629026 2.41763L0.665369 2.39362L5.25956 0L10.2182 6.99199L7.93687 10.209C8.00514 11.4223 8.49165 12.5669 9.30429 13.4263C10.1169 14.2857 11.1993 14.8002 12.3465 14.8724L15.3885 12.4597L22 17.7036L19.7555 22.5216L19.7366 22.5622L19.7138 22.6006C19.594 22.8047 19.4268 22.973 19.2282 23.0895C19.0295 23.2059 18.8059 23.2666 18.5788 23.2659H17.3933C15.1092 23.2659 12.8474 22.7901 10.7372 21.8657C8.62693 20.9413 6.7095 19.5864 5.09438 17.8783C3.47926 16.1703 2.19807 14.1425 1.32398 11.9108C0.449888 9.67914 0 7.28723 5.72205e-06 4.87167V3.61794C-0.000720978 3.37773 0.0567017 3.14132 0.166807 2.93122C0.276911 2.72111 0.436033 2.5443 0.629026 2.41763ZM1.69777 4.87167C1.69777 14.0243 8.7388 21.4704 17.3933 21.4704H18.3526L19.8544 18.2463L15.3882 14.7039L12.9017 16.6761H12.6187C10.9251 16.6741 9.30147 15.9617 8.10393 14.6953C6.90639 13.4288 6.23279 11.7117 6.23089 9.9207V9.62148L8.09572 6.99193L4.74647 2.26906L1.69777 3.85752V4.87167Z" fill="white"/>
</g>
</svg>
